<svg xmlns="http://www.w3.org/2000/svg">
        <symbol viewBox="0 0 24 24" id="home">
            <path stroke="#1C274C" stroke-linecap="round" stroke-width="1.5" d="M22 22H2M2 11l4.063-3.25M22 11l-8.126-6.5a3 3 0 0 0-3.748 0l-.782.625M15.5 5.5v-2A.5.5 0 0 1 16 3h2.5a.5.5 0 0 1 .5.5v5M4 22V9.5M20 9.5v4m0 8.5v-4.5"/><path stroke="#1C274C" stroke-linecap="round" stroke-linejoin="round" stroke-width="1.5" d="M15 22v-5c0-1.414 0-2.121-.44-2.56C14.122 14 13.415 14 12 14c-1.414 0-2.121 0-2.56.44M9 22v-5"/><path stroke="#1C274C" stroke-width="1.5" d="M14 9.5a2 2 0 1 1-4 0 2 2 0 0 1 4 0Z"/>
        </symbol>
        <symbol viewBox="0 0 24 24" id="gallery">
            <path stroke="#1C274C" stroke-linecap="round" stroke-width="1.5" d="M22 12c0 4.714 0 7.071-1.465 8.535C19.072 22 16.714 22 12 22s-7.071 0-8.536-1.465C2 19.072 2 16.714 2 12c0-1.128 0-2.122.02-3M12 2C7.286 2 4.929 2 3.464 3.464c-.424.425-.726.925-.94 1.536"/><path stroke="#1C274C" stroke-linecap="round" stroke-width="1.5" d="m2 12.5 1.752-1.533a2.3 2.3 0 0 1 3.14.105l4.29 4.29a2 2 0 0 0 2.564.222l.299-.21a3 3 0 0 1 3.731.225L21 18.5"/><path d="m16.06 8.57.492-.566-.492.566ZM18 3.968l-.532.529a.75.75 0 0 0 1.064 0L18 3.967Zm1.94 4.602-.492-.566.492.566ZM18 9.606v-.75.75Zm-1.448-1.602c-.486-.422-.952-.895-1.292-1.374-.347-.49-.51-.914-.51-1.255h-1.5c0 .788.358 1.518.786 2.122.435.614.999 1.175 1.533 1.639l.983-1.132ZM14.75 5.375c0-.933.42-1.404.834-1.557.426-.156 1.13-.08 1.884.679l1.064-1.058c-1.045-1.05-2.342-1.442-3.466-1.028-1.136.418-1.816 1.555-1.816 2.964h1.5Zm5.681 3.761c.534-.464 1.098-1.025 1.533-1.639.428-.604.786-1.334.786-2.122h-1.5c0 .341-.163.765-.51 1.255-.34.48-.806.952-1.292 1.374l.983 1.132Zm2.319-3.76c0-1.41-.68-2.547-1.816-2.965-1.124-.414-2.42-.023-3.466 1.028l1.064 1.058c.755-.76 1.458-.835 1.884-.679.414.153.834.624.834 1.557h1.5Zm-7.181 3.76c.756.658 1.36 1.22 2.431 1.22v-1.5c-.424 0-.615-.129-1.448-.852l-.983 1.132Zm3.879-1.132c-.833.723-1.024.852-1.448.852v1.5c1.071 0 1.675-.562 2.431-1.22l-.983-1.132Z"/>
        </symbol>
        <symbol viewBox="0 0 24 24" id="arrow-down">
            <path d="M17.543 14.267a.75.75 0 1 0-1.086-1.034l1.086 1.034Zm-6.086 4.216a.75.75 0 1 0 1.086 1.034l-1.086-1.034Zm0 1.034a.75.75 0 1 0 1.086-1.034l-1.086 1.034Zm-3.914-6.284a.75.75 0 1 0-1.086 1.034l1.086-1.034ZM11.25 19a.75.75 0 0 0 1.5 0h-1.5Zm1.5-14a.75.75 0 0 0-1.5 0h1.5Zm3.707 8.233-5 5.25 1.086 1.034 5-5.25-1.086-1.034Zm-3.914 5.25-5-5.25-1.086 1.034 5 5.25 1.086-1.034Zm.207.517V5h-1.5v14h1.5Z"/>
        </symbol>
        <symbol viewBox="0 0 24 24" id="arrow-left">
            <g stroke="#000" stroke-linecap="round" stroke-linejoin="round" stroke-width="2">
            <path d="m7.6 7-5.1 5 5.1 5" data-name="Right"/><path d="M21.5 12H4.8"/></g>
        </symbol>
        <symbol viewBox="0 0 20 20" id="github">
			<path fill-rule="evenodd" d="M10 0c5.523 0 10 4.59 10 10.253 0 4.529-2.862 8.371-6.833 9.728-.507.101-.687-.219-.687-.492 0-.338.012-1.442.012-2.814 0-.956-.32-1.58-.679-1.898 2.227-.254 4.567-1.121 4.567-5.059 0-1.12-.388-2.034-1.03-2.752.104-.259.447-1.302-.098-2.714 0 0-.838-.275-2.747 1.051A9.396 9.396 0 0 0 10 4.958a9.375 9.375 0 0 0-2.503.345C5.586 3.977 4.746 4.252 4.746 4.252c-.543 1.412-.2 2.455-.097 2.714-.639.718-1.03 1.632-1.03 2.752 0 3.928 2.335 4.808 4.556 5.067-.286.256-.545.708-.635 1.371-.57.262-2.018.715-2.91-.852 0 0-.529-.985-1.533-1.057 0 0-.975-.013-.068.623 0 0 .655.315 1.11 1.5 0 0 .587 1.83 3.369 1.21.005.857.014 1.665.014 1.909 0 .271-.184.588-.683.493C2.865 18.627 0 14.783 0 10.253 0 4.59 4.478 0 10 0"/>
		</symbol>
		<symbol viewBox="-143 145 512 512" id="linkedin">
			<path d="M113 145c-141.4 0-256 114.6-256 256s114.6 256 256 256 256-114.6 256-256-114.6-256-256-256zM41.4 508.1H-8.5V348.4h49.9v159.7zM15.1 328.4h-.4c-18.1 0-29.8-12.2-29.8-27.7 0-15.8 12.1-27.7 30.5-27.7s29.7 11.9 30.1 27.7c.1 15.4-11.6 27.7-30.4 27.7zM241 508.1h-56.6v-82.6c0-21.6-8.8-36.4-28.3-36.4-14.9 0-23.2 10-27 19.6-1.4 3.4-1.2 8.2-1.2 13.1v86.3H71.8s.7-146.4 0-159.7h56.1v25.1c3.3-11 21.2-26.6 49.8-26.6 35.5 0 63.3 23 63.3 72.4v88.8z"/>
		</symbol>
		<symbol viewBox="0 0 32 32" id="telegram">
			<path d="M22.122 10.04h.022c.209 0 .403.065.562.177l-.003-.002a.632.632 0 0 1 .213.403v.003a2.553 2.553 0 0 1 .024.598v-.009c-.225 2.369-1.201 8.114-1.697 10.766-.21 1.123-.623 1.499-1.023 1.535-.869.081-1.529-.574-2.371-1.126-1.318-.865-2.063-1.403-3.342-2.246-1.479-.973-.52-1.51.322-2.384.221-.23 4.052-3.715 4.127-4.031a.308.308 0 0 0-.07-.265.34.34 0 0 0-.185-.053.364.364 0 0 0-.128.024l.002-.001q-.198.045-6.316 4.174a2.805 2.805 0 0 1-1.619.599h-.006a10.542 10.542 0 0 1-2.401-.573l.074.024c-.938-.306-1.683-.467-1.619-.985q.051-.404 1.114-.827 6.548-2.853 8.733-3.761a22.627 22.627 0 0 1 5.429-2.01l.157-.031zM15.93 1.025C7.628 1.045.905 7.78.905 16.085c0 8.317 6.742 15.06 15.06 15.06s15.06-6.742 15.06-15.06c0-8.305-6.723-15.04-15.023-15.06H15.93z" />
		</symbol>
    </svg>